<svg xmlns="http://www.w3.org/2000/svg" xmlns:xlink="http://www.w3.org/1999/xlink" viewBox="0 0 1000 1000" width="401" height="401" style="width: 100%; height: 100%; transform: translate3d(0px, 0px, 0px); content-visibility: visible; background-color: transparent;" preserveAspectRatio="xMidYMid meet"><defs><clipPath id="__lottie_element_2"><rect width="1000" height="1000" x="0" y="0"/></clipPath></defs><g clip-path="url(#__lottie_element_2)"><g style="display: block;" transform="matrix(1,0,0,1,0,0)" opacity="1"><rect width="1000" height="1000" fill="#ffffff00"/></g><g style="display: block;" transform="matrix(0.12126309424638748,0,0,0.12126309424638748,426.2366027832031,432.7972717285156)" opacity="1"><g opacity="1" transform="matrix(1,0,0,1,485.0559997558594,492.5220031738281)"><path fill="rgb(51,64,84)" fill-opacity="1" d=" M296.9010009765625,33 C296.9010009765625,33 -296.8999938964844,33 -296.8999938964844,33 C-315.1260070800781,33 -329.8999938964844,18.22599983215332 -329.8999938964844,0 C-329.8999938964844,-18.225000381469727 -315.1260070800781,-33 -296.8999938964844,-33 C-296.8999938964844,-33 296.9010009765625,-33 296.9010009765625,-33 C315.1260070800781,-33 329.8999938964844,-18.225000381469727 329.8999938964844,0 C329.8999938964844,18.22599983215332 315.1260070800781,33 296.9010009765625,33z"/></g></g><g style="display: block;" transform="matrix(1,0,0,1,-380,0)" opacity="1"><g opacity="1" transform="matrix(1,0,0,1,268,497.8380126953125)"><path fill="rgb(51,64,84)" fill-opacity="1" d=" M0,136 C0,136 0,136 0,136 C-18.777999877929688,136 -34,120.7770004272461 -34,102 C-34,102 -34,-102 -34,-102 C-34,-120.77799987792969 -18.777999877929688,-136 0,-136 C18.777999877929688,-136 34,-120.77799987792969 34,-102 C34,-102 34,102 34,102 C34,120.7770004272461 18.777999877929688,136 0,136z"/></g></g><g style="display: block;" transform="matrix(1,0,0,1,400.00006103515625,0)" opacity="1"><g opacity="1" transform="matrix(1,0,0,1,644.9409790039062,497.8380126953125)"><path fill="rgb(51,64,84)" fill-opacity="1" d=" M0,187.17599487304688 C0,187.17599487304688 0,187.17599487304688 0,187.17599487304688 C-20.95400047302246,187.17599487304688 -37.941001892089844,170.18899536132812 -37.941001892089844,149.23500061035156 C-37.941001892089844,149.23500061035156 -37.941001892089844,-149.23399353027344 -37.941001892089844,-149.23399353027344 C-37.941001892089844,-170.18899536132812 -20.95400047302246,-187.17599487304688 0,-187.17599487304688 C20.95400047302246,-187.17599487304688 37.941001892089844,-170.18899536132812 37.941001892089844,-149.23399353027344 C37.941001892089844,-149.23399353027344 37.941001892089844,149.23500061035156 37.941001892089844,149.23500061035156 C37.941001892089844,170.18899536132812 20.95400047302246,187.17599487304688 0,187.17599487304688z"/></g></g><g style="display: block;" transform="matrix(1,0,0,1,-380,0)" opacity="1"><g opacity="1" transform="matrix(1,0,0,1,327.9410095214844,497.8380126953125)"><path fill="rgb(51,64,84)" fill-opacity="1" d=" M0,187.17599487304688 C0,187.17599487304688 0,187.17599487304688 0,187.17599487304688 C-20.954999923706055,187.17599487304688 -37.941001892089844,170.18899536132812 -37.941001892089844,149.23500061035156 C-37.941001892089844,149.23500061035156 -37.941001892089844,-149.23399353027344 -37.941001892089844,-149.23399353027344 C-37.941001892089844,-170.18899536132812 -20.954999923706055,-187.17599487304688 0,-187.17599487304688 C20.954999923706055,-187.17599487304688 37.941001892089844,-170.18899536132812 37.941001892089844,-149.23399353027344 C37.941001892089844,-149.23399353027344 37.941001892089844,149.23500061035156 37.941001892089844,149.23500061035156 C37.941001892089844,170.18899536132812 20.954999923706055,187.17599487304688 0,187.17599487304688z"/></g></g><g style="display: block;" transform="matrix(1,0,0,1,400,0)" opacity="1"><g opacity="1" transform="matrix(1,0,0,1,703,497.8380126953125)"><path fill="rgb(51,64,84)" fill-opacity="1" d=" M0,136 C0,136 0,136 0,136 C-18.777000427246094,136 -34,120.7770004272461 -34,102 C-34,102 -34,-102 -34,-102 C-34,-120.77799987792969 -18.777000427246094,-136 0,-136 C18.777000427246094,-136 34,-120.77799987792969 34,-102 C34,-102 34,102 34,102 C34,120.7770004272461 18.777000427246094,136 0,136z"/></g></g></g></svg>